<svg width="119" height="48" viewBox="0 0 119 48" fill="none" xmlns="http://www.w3.org/2000/svg">
<path d="M8.87743 42.6969L7.29044 43.6637C7.24142 43.6939 7.17999 43.6939 7.13038 43.6658C7.08807 43.6412 7.06047 43.5994 7.05456 43.5531L7.05666 43.5057L7.40102 41.6986L8.87743 42.6969Z" fill="black"/>
<path d="M30.7645 9.73026C31.5647 10.2744 31.7658 11.3677 31.2116 12.1609L20.2212 27.8918L20.2275 27.896L10.6782 41.5796L10.6845 41.5838C10.6721 41.6009 10.6558 41.6159 10.6371 41.627L9.16597 42.5221L7.46315 41.3701L7.78012 39.6946C7.78376 39.6743 7.79086 39.6549 7.80224 39.6378L7.79381 39.6325L28.3641 10.1721C28.9084 9.39261 29.9783 9.19565 30.7645 9.73026Z" fill="black"/>
<path d="M10.8667 30.2212H9.59247C9.14578 30.2262 8.70872 30.3447 8.32351 30.5634C8.28954 30.5827 8.25547 30.6026 8.22242 30.6234C7.85312 30.8561 7.55101 31.1775 7.34415 31.5544C7.32558 31.5883 7.30741 31.6229 7.29044 31.6576C7.19345 31.8559 7.12215 32.0647 7.08088 32.2789C7.06875 32.3417 7.0597 32.4056 7.05245 32.4695C7.04591 32.5272 7.04119 32.5855 7.03876 32.6432C7.03479 32.7376 7.03712 32.8328 7.04402 32.9276C7.04588 32.9528 7.04876 32.9783 7.0514 33.0034C7.06836 33.1659 7.10111 33.3262 7.14933 33.4815C7.20564 33.6624 7.28265 33.8378 7.37996 34.0038C7.42235 34.0762 7.46919 34.1462 7.51896 34.2144C7.62957 34.3661 7.75593 34.5057 7.89702 34.6293C8.36509 35.0396 8.73105 35.7709 8.42145 36.4754C8.13507 37.1253 7.31769 37.5136 6.63648 37.0588C6.27171 36.8151 5.9403 36.5263 5.64765 36.2016L5.63501 36.2121L5.39175 35.8983C5.38471 35.8892 5.37872 35.879 5.37174 35.8699C5.30766 35.7857 5.24539 35.6999 5.1864 35.6119C5.1723 35.5908 5.15911 35.5689 5.14533 35.5476C5.10703 35.4886 5.0686 35.4293 5.03265 35.3686C5.021 35.3489 5.01034 35.3284 4.99895 35.3086C4.99107 35.2948 4.98248 35.2813 4.97473 35.2675C4.86599 35.074 4.77066 34.8743 4.6883 34.6704C4.68243 34.6559 4.67505 34.6418 4.66934 34.6272C4.63187 34.5319 4.59885 34.4348 4.56719 34.3376C4.55921 34.3131 4.55058 34.2885 4.54297 34.2639C4.51362 34.169 4.48777 34.0728 4.46399 33.9764C4.45857 33.9545 4.45332 33.9321 4.44819 33.9101C4.3989 33.6982 4.36283 33.4832 4.34078 33.2667C4.33969 33.2562 4.33757 33.2455 4.33657 33.2351C4.33613 33.2303 4.33596 33.2251 4.33551 33.2203C4.32607 33.1183 4.31987 33.0155 4.31656 32.9128C4.31579 32.8891 4.31489 32.8649 4.31445 32.8412C4.31261 32.7397 4.3134 32.6376 4.31761 32.5358C4.31868 32.5103 4.32145 32.4844 4.32288 32.4589C4.3283 32.3629 4.33517 32.2664 4.34605 32.1704C4.34626 32.1678 4.34574 32.1646 4.34605 32.162C4.34781 32.1469 4.35156 32.1317 4.35342 32.1167C4.36533 32.0208 4.37936 31.925 4.39659 31.8303C4.40013 31.8108 4.40336 31.7907 4.40712 31.7713C4.4246 31.6813 4.44494 31.5915 4.46715 31.5028C4.47749 31.4614 4.48841 31.4196 4.49979 31.3785C4.5224 31.2969 4.54695 31.2155 4.57351 31.1352C4.58499 31.1005 4.59708 31.0655 4.60931 31.031C4.67521 30.8454 4.75222 30.6634 4.83888 30.4865C4.84888 30.4661 4.85808 30.4447 4.86837 30.4244C4.87429 30.4128 4.88135 30.4012 4.88733 30.3897C4.92744 30.3119 4.96964 30.2347 5.0137 30.159C5.03384 30.1245 5.05491 30.0899 5.07583 30.0558C5.12138 29.9816 5.16864 29.9077 5.21799 29.8357C5.23614 29.8093 5.25518 29.7829 5.27381 29.7568C5.32227 29.6888 5.37255 29.6214 5.42439 29.5556C5.45303 29.5193 5.48327 29.4837 5.51285 29.4482C5.56298 29.388 5.61467 29.3283 5.66766 29.2702C5.68563 29.2505 5.70308 29.2297 5.72136 29.2102C5.72433 29.2071 5.72788 29.2039 5.73084 29.2007C5.76334 29.1664 5.79753 29.1331 5.83088 29.0996C5.91285 29.0175 5.99834 28.9383 6.08573 28.8616C6.11813 28.8332 6.14953 28.8029 6.18261 28.7753C6.23367 28.7327 6.28679 28.6918 6.33952 28.651C6.36758 28.6294 6.39634 28.6079 6.42482 28.5868C6.48021 28.5457 6.53621 28.5046 6.59331 28.4657C6.63978 28.434 6.68804 28.4043 6.73547 28.3741C6.76611 28.3545 6.796 28.3329 6.82709 28.314C6.8384 28.3072 6.8505 28.3008 6.86184 28.294C6.95115 28.2407 7.04227 28.1894 7.13459 28.1413C7.17363 28.121 7.2141 28.1027 7.25359 28.0834C7.3138 28.0539 7.37443 28.0243 7.43577 27.9971C7.48258 27.9763 7.53058 27.9575 7.57793 27.9381C7.6088 27.9254 7.63948 27.9112 7.6706 27.8991C7.68132 27.895 7.69256 27.8914 7.70325 27.8875C8.18281 27.7051 8.68756 27.5921 9.20178 27.5516V27.5337H12.7412L10.8667 30.2212Z" fill="black"/>
<path d="M35.3876 19.7947H35.7635V19.8115C36.316 19.8546 36.86 19.981 37.3736 20.1896C38.0167 20.4509 38.6024 20.8341 39.0954 21.3174C39.5886 21.8011 39.9811 22.3767 40.2485 23.0097C40.5159 23.6427 40.6529 24.3218 40.6529 25.0074C40.6529 25.693 40.5159 26.3721 40.2485 27.0051C39.9811 27.638 39.5887 28.2137 39.0954 28.6974C38.6024 29.1807 38.0167 29.5639 37.3736 29.8252C36.86 30.0338 36.3159 30.1591 35.7635 30.2022V30.2212H22.0819L23.7047 27.896L23.6974 27.8907L23.9469 27.5337H35.3654C35.6985 27.5309 36.029 27.4658 36.3364 27.341C36.6502 27.2134 36.9352 27.026 37.1746 26.7913C37.4141 26.5564 37.6046 26.2778 37.7338 25.972C37.863 25.6661 37.9297 25.338 37.9297 25.0074C37.9297 24.6768 37.863 24.3487 37.7338 24.0428C37.6046 23.737 37.4141 23.4584 37.1746 23.2235C36.9352 22.9888 36.6502 22.8013 36.3364 22.6738C36.0355 22.5516 35.7124 22.4874 35.3865 22.4821H27.4705L29.3461 19.7947H34.94L35.3444 19.7936C35.3586 19.7936 35.3733 19.7945 35.3876 19.7947Z" fill="black"/>
<path d="M21.6681 14.7409H9.60089C9.26784 14.7437 8.93738 14.8089 8.62996 14.9337C8.31616 15.0612 8.03116 15.2487 7.79171 15.4834C7.55221 15.7183 7.36176 15.9969 7.23253 16.3027C7.10333 16.6086 7.03668 16.9367 7.03665 17.2673C7.03666 17.5979 7.10331 17.926 7.23253 18.2319C7.36176 18.5378 7.55214 18.8162 7.79171 19.0512C8.03121 19.286 8.31607 19.4733 8.62996 19.6009C8.9439 19.7284 9.28171 19.7946 9.62195 19.7947H18.1413L16.2669 22.4821H9.20178V22.4621C8.6497 22.4189 8.10607 22.2936 7.59268 22.0851C6.94954 21.8238 6.364 21.4407 5.8709 20.9573C5.37761 20.4735 4.98521 19.898 4.71778 19.265C4.45044 18.6319 4.31341 17.9529 4.3134 17.2673C4.31343 16.5817 4.45047 15.9025 4.71778 15.2696C4.9852 14.6367 5.3777 14.061 5.8709 13.5773C6.36396 13.094 6.94963 12.7107 7.59268 12.4495C8.10574 12.2411 8.64899 12.1147 9.20072 12.0714V12.0535H23.5436L21.6681 14.7409Z" fill="black"/>
<path d="M35.5961 4.31445C35.6112 4.31432 35.6262 4.3134 35.6413 4.3134H36.0457V4.33551C36.5883 4.38343 37.1216 4.50845 37.6274 4.70725C38.2898 4.96756 38.8928 5.35007 39.4019 5.83298C39.911 6.31606 40.3161 6.89128 40.5929 7.52528C40.8696 8.15928 41.0131 8.83958 41.0131 9.52717C41.013 10.2147 40.8696 10.8951 40.5929 11.5291C40.3161 12.163 39.911 12.7383 39.4019 13.2214C38.8928 13.7043 38.2898 14.0868 37.6274 14.3471C37.095 14.5563 36.5316 14.6811 35.9594 14.723V14.7409H32.8718L34.7473 12.0535H35.5613C35.9092 12.0508 36.2538 11.9846 36.5744 11.8587C36.9015 11.7301 37.198 11.5425 37.4463 11.3069C37.6945 11.0713 37.8902 10.7924 38.0234 10.4876C38.1565 10.1826 38.2245 9.85588 38.2245 9.52717C38.2245 9.19847 38.1565 8.87173 38.0234 8.56677C37.8902 8.26189 37.6945 7.98303 37.4463 7.74748C37.198 7.51184 36.9015 7.32431 36.5744 7.19566C36.2583 7.07146 35.919 7.00533 35.576 7.00084C35.1873 7.01071 34.8056 7.10719 34.4608 7.28307C34.0967 7.46894 33.7834 7.73837 33.5489 8.06656L33.3183 8.3888L31.4227 7.0872L31.0836 6.85341L31.3227 6.51854C31.8099 5.83686 32.4573 5.28031 33.2087 4.8968C33.8096 4.59023 34.464 4.40226 35.1348 4.33867V4.3134H35.5392L35.5961 4.31445Z" fill="black"/>
<path d="M58.5723 27.6017C57.4795 27.6017 56.5018 27.4148 55.6392 27.0409C54.7909 26.6671 54.1151 26.1208 53.6119 25.4019C53.123 24.683 52.8714 23.8131 52.857 22.7922H55.9411C55.9555 23.238 56.0705 23.6406 56.2862 24C56.5018 24.3594 56.7966 24.647 57.1704 24.8627C57.5586 25.064 58.0187 25.1646 58.5507 25.1646C59.0108 25.1646 59.4062 25.0927 59.7369 24.9489C60.082 24.7908 60.3479 24.5751 60.5349 24.3019C60.7218 24.0288 60.8152 23.7053 60.8152 23.3314C60.8152 22.8857 60.7074 22.5191 60.4917 22.2315C60.2904 21.9439 60.0029 21.6995 59.6291 21.4982C59.2552 21.2969 58.8239 21.1172 58.335 20.9591C57.8606 20.7865 57.3573 20.614 56.8253 20.4414C55.6463 20.0532 54.7405 19.5356 54.1079 18.8886C53.4897 18.2416 53.1805 17.3861 53.1805 16.3222C53.1805 15.4163 53.3962 14.6399 53.8275 13.9929C54.2733 13.3459 54.8843 12.8499 55.6607 12.5048C56.4371 12.1597 57.3214 11.9872 58.3135 11.9872C59.3343 11.9872 60.2257 12.1669 60.9878 12.5264C61.7642 12.8714 62.3752 13.3747 62.821 14.0361C63.2811 14.6974 63.5183 15.4739 63.5327 16.3653H60.427C60.4127 16.0346 60.312 15.7255 60.1251 15.4379C59.9526 15.136 59.7081 14.8987 59.3918 14.7262C59.0755 14.5393 58.7017 14.4458 58.2703 14.4458C57.8965 14.4314 57.5514 14.489 57.2351 14.6184C56.9332 14.7478 56.6888 14.9419 56.5018 15.2007C56.3293 15.4451 56.243 15.7542 56.243 16.1281C56.243 16.4875 56.3293 16.7894 56.5018 17.0339C56.6888 17.2783 56.9404 17.494 57.2567 17.6809C57.573 17.8534 57.9468 18.0188 58.3782 18.1769C58.8095 18.3207 59.2768 18.4717 59.78 18.6298C60.5277 18.8886 61.2178 19.1978 61.8505 19.5572C62.4831 19.9023 62.9863 20.3552 63.3601 20.9159C63.734 21.4767 63.9209 22.2171 63.9209 23.1373C63.9209 23.9281 63.7124 24.6614 63.2954 25.3372C62.8785 26.0129 62.2746 26.5593 61.4838 26.9762C60.7074 27.3932 59.7369 27.6017 58.5723 27.6017Z" fill="black"/>
<path d="M71.158 27.3429C70.3959 27.3429 69.7273 27.2279 69.1522 26.9978C68.5915 26.7534 68.153 26.358 67.8366 25.8116C67.5203 25.2509 67.3622 24.4889 67.3622 23.5255V19.018H65.529V16.581H67.3622L67.6857 13.6478H70.2737V16.581H73.1206V19.018H70.2737V23.5687C70.2737 24.0575 70.3815 24.3954 70.5972 24.5823C70.8129 24.7692 71.1795 24.8627 71.6971 24.8627H73.0774V27.3429H71.158Z" fill="black"/>
<path d="M75.6161 27.3429V16.581H78.5276V27.3429H75.6161ZM77.0826 15.0497C76.5507 15.0497 76.1193 14.8987 75.7886 14.5968C75.4579 14.2805 75.2926 13.8851 75.2926 13.4106C75.2926 12.9361 75.4579 12.5479 75.7886 12.246C76.1193 11.9297 76.5507 11.7715 77.0826 11.7715C77.6146 11.7715 78.046 11.9297 78.3767 12.246C78.7217 12.5479 78.8943 12.9361 78.8943 13.4106C78.8943 13.8851 78.7217 14.2805 78.3767 14.5968C78.046 14.8987 77.6146 15.0497 77.0826 15.0497Z" fill="black"/>
<path d="M86.3012 27.3429C85.5391 27.3429 84.8706 27.2279 84.2954 26.9978C83.7347 26.7534 83.2962 26.358 82.9799 25.8116C82.6635 25.2509 82.5054 24.4889 82.5054 23.5255V19.018H80.6722V16.581H82.5054L82.8289 13.6478H85.4169V16.581H88.2638V19.018H85.4169V23.5687C85.4169 24.0575 85.5248 24.3954 85.7404 24.5823C85.9561 24.7692 86.3227 24.8627 86.8404 24.8627H88.2206V27.3429H86.3012Z" fill="black"/>
<path d="M95.6832 27.6017C94.5904 27.6017 93.6199 27.3645 92.7716 26.89C91.9233 26.4011 91.2547 25.7325 90.7659 24.8842C90.2914 24.0359 90.0542 23.0654 90.0542 21.9727C90.0542 20.8656 90.2914 19.8951 90.7659 19.0612C91.2547 18.2129 91.9233 17.5443 92.7716 17.0554C93.6199 16.5666 94.5904 16.3222 95.6832 16.3222C97.0778 16.3222 98.2424 16.6888 99.177 17.4221C100.126 18.141 100.73 19.1331 100.989 20.3983H97.9046C97.7752 19.9095 97.5092 19.5213 97.1066 19.2337C96.704 18.9461 96.2223 18.8024 95.6616 18.8024C95.1584 18.8024 94.7055 18.9318 94.3029 19.1906C93.9147 19.435 93.6055 19.7944 93.3755 20.2689C93.1454 20.7434 93.0304 21.3041 93.0304 21.9511C93.0304 22.4544 93.0951 22.9001 93.2245 23.2883C93.3683 23.6765 93.5552 24.0072 93.7853 24.2804C94.0297 24.5536 94.3101 24.762 94.6264 24.9058C94.9427 25.0496 95.2878 25.1215 95.6616 25.1215C96.0354 25.1215 96.3733 25.064 96.6752 24.9489C96.9772 24.8195 97.236 24.6326 97.4516 24.3882C97.6673 24.1438 97.8183 23.8562 97.9046 23.5255H100.989C100.73 24.762 100.126 25.7541 99.177 26.5018C98.2281 27.235 97.0634 27.6017 95.6832 27.6017Z" fill="black"/>
<path d="M103.457 27.3429V11.8147H106.369V18.1769C106.728 17.6162 107.21 17.1705 107.814 16.8398C108.418 16.4947 109.115 16.3222 109.906 16.3222C110.797 16.3222 111.552 16.5163 112.17 16.9045C112.789 17.2783 113.256 17.8318 113.572 18.5651C113.903 19.284 114.068 20.1755 114.068 21.2394V27.3429H111.178V21.5198C111.178 20.6427 110.999 19.967 110.639 19.4925C110.28 19.018 109.712 18.7808 108.935 18.7808C108.461 18.7808 108.022 18.8958 107.62 19.1259C107.232 19.3559 106.922 19.6938 106.692 20.1395C106.477 20.5708 106.369 21.1028 106.369 21.7355V27.3429H103.457Z" fill="black"/>
</svg>
