<svg width="16" height="16" viewBox="0 0 16 16" fill="none" xmlns="http://www.w3.org/2000/svg">
<path d="M13.3246 5.77333C13.2435 5.83633 11.8126 6.64413 11.8126 8.44033C11.8126 10.5179 13.6334 11.2529 13.6879 11.2711C13.6795 11.3159 13.3987 12.2777 12.7279 13.2577C12.1298 14.1201 11.5051 14.9811 10.5549 14.9811C9.60466 14.9811 9.36011 14.4281 8.26314 14.4281C7.19411 14.4281 6.81401 14.9993 5.94482 14.9993C5.07562 14.9993 4.46914 14.2013 3.77183 13.2213C2.96412 12.0705 2.31152 10.2827 2.31152 8.58593C2.31152 5.86433 4.07786 4.42093 5.81625 4.42093C6.73995 4.42093 7.50993 5.02853 8.08986 5.02853C8.64184 5.02853 9.50265 4.38453 10.5535 4.38453C10.9518 4.38453 12.3827 4.42093 13.3246 5.77333ZM10.0546 3.23233C10.4892 2.71573 10.7967 1.99893 10.7967 1.28213C10.7967 1.18273 10.7883 1.08193 10.7701 1.00073C10.063 1.02733 9.22177 1.47253 8.7145 2.06193C8.31624 2.51553 7.94452 3.23233 7.94452 3.95893C7.94452 4.06813 7.96269 4.17733 7.97107 4.21233C8.01579 4.22073 8.08846 4.23053 8.16112 4.23053C8.79555 4.23053 9.59348 3.80493 10.0546 3.23233Z" fill="black"/>
</svg>
