<svg width="16" height="16" viewBox="0 0 16 16" fill="none" xmlns="http://www.w3.org/2000/svg">
<path d="M4.40023 6H11.6002M4.40023 6C4.02686 6 3.83971 6 3.69711 6.07266C3.57166 6.13658 3.46975 6.23849 3.40584 6.36393C3.33317 6.50654 3.33317 6.69336 3.33317 7.06673V10.5334C3.33317 11.2801 3.33317 11.6536 3.4785 11.9388C3.60633 12.1897 3.81015 12.3937 4.06104 12.5215C4.34597 12.6667 4.71917 12.6667 5.46445 12.6667H10.535C11.2803 12.6667 11.6529 12.6667 11.9379 12.5215C12.1887 12.3937 12.3935 12.1896 12.5213 11.9388C12.6665 11.6538 12.6665 11.2811 12.6665 10.5358V7.06068C12.6665 6.69134 12.6665 6.50577 12.5942 6.36393C12.5303 6.23849 12.4279 6.13658 12.3025 6.07266C12.1599 6 11.9736 6 11.6002 6M4.40023 6H3.31671C2.75065 6 2.46778 6 2.30713 5.90104C2.09274 5.76898 1.97118 5.5272 1.99268 5.27632C2.0088 5.08815 2.17729 4.86059 2.51481 4.40493C2.61244 4.27314 2.66126 4.20722 2.72102 4.1569C2.80069 4.0898 2.89524 4.04215 2.99658 4.01806C3.07259 4 3.15418 4 3.3182 4H12.6811C12.8451 4 12.9269 4 13.0029 4.01806C13.1043 4.04215 13.1988 4.0898 13.2785 4.1569C13.3382 4.20723 13.3872 4.27283 13.4849 4.40462C13.8224 4.86028 13.9912 5.08812 14.0073 5.27628C14.0288 5.52716 13.9068 5.76898 13.6924 5.90104C13.5317 6 13.2482 6 12.6821 6H11.6002M6.66651 9.33333H9.33317" stroke="#F14D4D" stroke-width="1.33333" stroke-linecap="round" stroke-linejoin="round"/>
</svg>
