<svg width="20" height="20" viewBox="0 0 20 20" fill="none" xmlns="http://www.w3.org/2000/svg">
<path d="M13.3333 6.66659H16.6667C17.1269 6.66659 17.5 7.03968 17.5 7.49992V16.6666L14.7225 14.3591C14.5729 14.2348 14.384 14.1666 14.1895 14.1666H7.5C7.03976 14.1666 6.66667 13.7935 6.66667 13.3333V10.8333M13.3333 6.66659V4.16659C13.3333 3.70635 12.9602 3.33325 12.5 3.33325H3.33333C2.8731 3.33325 2.5 3.70635 2.5 4.16659V13.3335L5.27751 11.0256C5.42712 10.9013 5.61603 10.8333 5.81055 10.8333H6.66667M13.3333 6.66659V9.99992C13.3333 10.4602 12.9602 10.8333 12.5 10.8333H6.66667" stroke="currentColor" stroke-width="1.33" stroke-linecap="round" stroke-linejoin="round"/>
</svg>
