<svg width="16" height="16" viewBox="0 0 16 16" fill="none" xmlns="http://www.w3.org/2000/svg">
<path d="M12.6156 4.94238H6.75424C6.56938 4.94279 6.38642 4.97424 6.21584 5.03493C6.04526 5.09562 5.8904 5.18436 5.76012 5.29607C5.62984 5.40779 5.5267 5.54029 5.4566 5.68599C5.3865 5.83169 5.35081 5.98773 5.35157 6.14519V12.4062C5.35157 13.0703 5.97968 13.609 6.75424 13.609H12.6156C12.8004 13.6086 12.9834 13.5772 13.154 13.5165C13.3245 13.4558 13.4794 13.3671 13.6097 13.2554C13.74 13.1436 13.8431 13.0111 13.9132 12.8654C13.9833 12.7197 14.019 12.5637 14.0182 12.4062V6.14519C14.0182 5.4811 13.3901 4.94238 12.6156 4.94238Z" stroke="currentColor" stroke-width="1.1" stroke-linecap="round" stroke-linejoin="round"/>
<path d="M10.6667 4.81524V3.20281C10.6667 2.8838 10.5187 2.57782 10.2557 2.35253C10.1258 2.24099 9.97137 2.15243 9.80117 2.09193C9.63098 2.03143 9.44842 2.00019 9.264 2H3.40267C3.03105 2 2.67401 2.12661 2.41169 2.35253C2.14844 2.57876 2.00052 2.88428 2 3.20281V9.46386C2 9.78287 2.14792 10.0888 2.41096 10.3141C2.67401 10.5394 3.03032 10.6667 3.40267 10.6667H5.35912" stroke="currentColor" stroke-width="1.1" stroke-linecap="round" stroke-linejoin="round"/>
</svg>
