<svg width="20" height="20" viewBox="0 0 20 20" fill="none" xmlns="http://www.w3.org/2000/svg">
<path d="M7.50033 14.1667H12.5003M7.50033 11.6667H12.5003M10.834 2.50073C10.7544 2.5 10.6648 2.5 10.5626 2.5H6.83382C5.9004 2.5 5.43334 2.5 5.07682 2.68166C4.76322 2.84145 4.50844 3.09623 4.34865 3.40983C4.16699 3.76635 4.16699 4.23341 4.16699 5.16683V14.8335C4.16699 15.7669 4.16699 16.2334 4.34865 16.5899C4.50844 16.9035 4.76322 17.1587 5.07682 17.3185C5.433 17.5 5.8995 17.5 6.83111 17.5L13.1696 17.5C14.1012 17.5 14.567 17.5 14.9232 17.3185C15.2368 17.1587 15.4924 16.9035 15.6522 16.5899C15.8337 16.2337 15.8337 15.7679 15.8337 14.8363V7.7714C15.8337 7.66918 15.8336 7.57961 15.8328 7.5M10.834 2.50073C11.0719 2.5029 11.2218 2.51172 11.3655 2.54623C11.5355 2.58705 11.6985 2.65439 11.8477 2.74577C12.0158 2.84881 12.1602 2.99318 12.4482 3.28125L15.0528 5.88582C15.3411 6.17407 15.4844 6.3178 15.5875 6.486C15.6788 6.63512 15.7464 6.79771 15.7873 6.96777C15.8218 7.11149 15.8307 7.26212 15.8328 7.5M10.834 2.50073L10.8337 4.83351C10.8337 5.76693 10.8337 6.23346 11.0153 6.58998C11.1751 6.90358 11.4299 7.15873 11.7435 7.31852C12.0997 7.5 12.5662 7.5 13.4978 7.5H15.8328" stroke="currentColor" stroke-width="1.33" stroke-linecap="round" stroke-linejoin="round"/>
</svg>
