<svg width="16" height="16" viewBox="0 0 16 16" fill="none" xmlns="http://www.w3.org/2000/svg">
<path d="M7.99984 5.33339L2.6665 10.6667V13.3334L5.33317 13.3334L10.6665 8.00005M7.99984 5.33339L9.91226 3.42095L9.91341 3.41982C10.1767 3.15657 10.3085 3.0247 10.4605 2.97532C10.5944 2.93181 10.7387 2.93181 10.8726 2.97532C11.0245 3.02467 11.1562 3.15638 11.419 3.41926L12.5789 4.57913C12.8429 4.84314 12.975 4.97521 13.0244 5.12742C13.0679 5.26132 13.0679 5.40555 13.0244 5.53944C12.975 5.69155 12.8431 5.82342 12.5795 6.08706L12.5789 6.08762L10.6665 8.00005M7.99984 5.33339L10.6665 8.00005" stroke="black" stroke-opacity="0.5" stroke-width="1.33333" stroke-linecap="round" stroke-linejoin="round"/>
</svg>
