<svg width="16" height="16" viewBox="0 0 16 16" fill="none" xmlns="http://www.w3.org/2000/svg">
<g clip-path="url(#clip0_292_7454)">
<path d="M6.66712 2.66659H4.80046C4.05372 2.66659 3.68007 2.66659 3.39486 2.81191C3.14397 2.93974 2.94015 3.14357 2.81232 3.39445C2.66699 3.67967 2.66699 4.05331 2.66699 4.80005V11.2C2.66699 11.9468 2.66699 12.32 2.81232 12.6052C2.94015 12.8561 3.14397 13.0602 3.39486 13.1881C3.67979 13.3333 4.05299 13.3333 4.79827 13.3333H11.2024C11.9477 13.3333 12.3203 13.3333 12.6053 13.1881C12.8561 13.0602 13.0606 12.8559 13.1885 12.605C13.3337 12.32 13.3337 11.9473 13.3337 11.202V9.33325M10.667 3.33325L6.66699 7.33325V9.33325H8.66699L12.667 5.33325M10.667 3.33325L12.667 1.33325L14.667 3.33325L12.667 5.33325M10.667 3.33325L12.667 5.33325" stroke="currentColor" stroke-width="1.1" stroke-linecap="round" stroke-linejoin="round"/>
</g>
<defs>
<clipPath id="clip0_292_7454">
<rect width="16" height="16" fill="white"/>
</clipPath>
</defs>
</svg>
