<svg width="20" height="20" viewBox="0 0 20 20" fill="none" xmlns="http://www.w3.org/2000/svg">
<path d="M16.6663 4.66667C16.6663 4.19996 16.666 3.96643 16.5752 3.78817C16.4953 3.63137 16.3683 3.50397 16.2115 3.42408C16.0332 3.33325 15.7994 3.33325 15.3327 3.33325H4.66602C4.19931 3.33325 3.96618 3.33325 3.78792 3.42408C3.63112 3.50397 3.50373 3.63137 3.42384 3.78817C3.33301 3.96643 3.33301 4.19996 3.33301 4.66667V5.28105C3.33301 5.48487 3.33301 5.58686 3.35603 5.68277C3.37645 5.7678 3.4102 5.84902 3.45589 5.92358C3.50741 6.00765 3.5796 6.07984 3.72363 6.22388L7.94258 10.4428C8.0867 10.5869 8.15837 10.6586 8.20991 10.7427C8.2556 10.8173 8.28981 10.8988 8.31022 10.9838C8.33301 11.0787 8.33301 11.1795 8.33301 11.3792V15.3424C8.33301 16.0568 8.33301 16.4142 8.48346 16.6293C8.61484 16.8171 8.81751 16.9424 9.04427 16.9759C9.30396 17.0143 9.6236 16.8547 10.2625 16.5352L10.9292 16.2019C11.1967 16.0681 11.3302 16.001 11.4279 15.9012C11.5144 15.813 11.5805 15.707 11.6208 15.5902C11.6663 15.4582 11.6663 15.3082 11.6663 15.0091V11.3854C11.6663 11.1816 11.6663 11.0797 11.6894 10.9838C11.7098 10.8988 11.7435 10.8173 11.7892 10.7427C11.8404 10.6592 11.9119 10.5877 12.0541 10.4455L12.057 10.4428L16.2759 6.22388C16.42 6.07975 16.4917 6.00768 16.5432 5.92358C16.5889 5.84902 16.6231 5.7678 16.6436 5.68277C16.6663 5.58784 16.6663 5.48695 16.6663 5.28725V4.66667Z" stroke="currentColor" stroke-width="1.33" stroke-linecap="round" stroke-linejoin="round"/>
</svg>

