<svg width="20" height="20" viewBox="0 0 20 20" fill="none" xmlns="http://www.w3.org/2000/svg">
<path d="M7.50002 14.1667H12.5M7.50002 11.6667H12.5M10.8337 2.50073C10.7541 2.5 10.6645 2.5 10.5623 2.5H6.83352C5.9001 2.5 5.43304 2.5 5.07652 2.68166C4.76291 2.84145 4.50813 3.09623 4.34834 3.40983C4.16669 3.76635 4.16669 4.23341 4.16669 5.16683V14.8335C4.16669 15.7669 4.16669 16.2334 4.34834 16.5899C4.50813 16.9035 4.76291 17.1587 5.07652 17.3185C5.43269 17.5 5.89919 17.5 6.8308 17.5L13.1693 17.5C14.1009 17.5 14.5667 17.5 14.9228 17.3185C15.2365 17.1587 15.4921 16.9035 15.6519 16.5899C15.8334 16.2337 15.8334 15.7679 15.8334 14.8363V7.7714C15.8334 7.66918 15.8333 7.57961 15.8325 7.5M10.8337 2.50073C11.0715 2.5029 11.2215 2.51172 11.3652 2.54623C11.5352 2.58705 11.6982 2.65439 11.8474 2.74577C12.0155 2.84881 12.1599 2.99318 12.4479 3.28125L15.0525 5.88582C15.3408 6.17407 15.4841 6.3178 15.5871 6.486C15.6785 6.63512 15.7461 6.79771 15.787 6.96777C15.8215 7.11149 15.8304 7.26212 15.8325 7.5M10.8337 2.50073L10.8334 4.83351C10.8334 5.76693 10.8334 6.23346 11.015 6.58998C11.1748 6.90358 11.4296 7.15873 11.7432 7.31852C12.0994 7.5 12.5659 7.5 13.4975 7.5H15.8325" stroke="black" stroke-width="1.33" stroke-linecap="round" stroke-linejoin="round"/>
</svg>
