<svg width="27" height="24" viewBox="0 0 27 24" fill="none" xmlns="http://www.w3.org/2000/svg">
<path d="M1.06403 18.3974C1.06396 18.3113 1.06396 18.2225 1.06396 18.1309V5.33089C1.06396 3.83742 1.06396 3.09013 1.35461 2.51969C1.61028 2.01793 2.01793 1.61028 2.51969 1.35461C3.09013 1.06396 3.83742 1.06396 5.33089 1.06396H20.7976C22.291 1.06396 23.0374 1.06396 23.6078 1.35461C24.1096 1.61028 24.5179 2.01793 24.7736 2.51969C25.064 3.08957 25.064 3.83596 25.064 5.32651V18.1348C25.064 18.7814 25.064 19.2878 25.0403 19.7005M1.06403 18.3974C1.06506 19.7152 1.08179 20.405 1.35461 20.9405C1.61028 21.4423 2.01793 21.8513 2.51969 22.1069C3.08957 22.3973 3.83596 22.3973 5.32651 22.3973H20.8021C22.2926 22.3973 23.0379 22.3973 23.6078 22.1069C24.1096 21.8513 24.5179 21.4423 24.7736 20.9405C24.938 20.6179 25.0093 20.239 25.0403 19.7005M1.06403 18.3974L7.42127 10.9806L7.42315 10.9786C7.98699 10.3208 8.26938 9.99131 8.60433 9.87256C8.89855 9.76825 9.21979 9.77068 9.51253 9.87907C9.84615 10.0026 10.124 10.3358 10.6799 11.0028L14.2414 15.2766C14.7559 15.894 15.0146 16.2045 15.3288 16.3291C15.6059 16.4391 15.9115 16.4514 16.1974 16.3671C16.5229 16.271 16.8094 15.9846 17.3823 15.4116L18.0451 14.7489C18.6284 14.1655 18.9201 13.8741 19.2502 13.7788C19.5402 13.6951 19.8501 13.7131 20.1291 13.8283C20.4467 13.9594 20.7042 14.2805 21.2196 14.9246L25.0403 19.7005M25.0403 19.7005L25.0639 19.7301M17.064 9.06396C16.3276 9.06396 15.7306 8.46701 15.7306 7.73063C15.7306 6.99425 16.3276 6.3973 17.064 6.3973C17.8003 6.3973 18.3973 6.99425 18.3973 7.73063C18.3973 8.46701 17.8003 9.06396 17.064 9.06396Z" stroke="#534AFF" stroke-width="2.128" stroke-linecap="round" stroke-linejoin="round"/>
<path d="M2.51969 22.1073C3.08957 22.3977 3.83596 22.3977 5.32651 22.3977H20.8021C22.2926 22.3977 23.0379 22.3977 23.6078 22.1073C24.1096 21.8516 24.5179 21.4426 24.7736 20.9409C24.938 20.6182 25.0093 20.2394 25.0403 19.7009L21.2196 14.925C20.7042 14.2808 20.4467 13.9598 20.1291 13.8287C19.8501 13.7135 19.5402 13.6955 19.2502 13.7792C18.9201 13.8745 18.6284 14.1659 18.0451 14.7492L17.3823 15.412C16.8094 15.9849 16.5229 16.2714 16.1974 16.3674C15.9115 16.4518 15.6059 16.4394 15.3288 16.3295C15.0146 16.2049 14.7559 15.8944 14.2414 15.277L10.6799 11.0031C10.124 10.3362 9.84615 10.003 9.51253 9.87944C9.21978 9.77105 8.89855 9.76862 8.60433 9.87293C8.26938 9.99168 7.98699 10.3211 7.42315 10.9789L7.42127 10.981L1.06403 18.3978C1.06506 19.7156 1.08179 20.4054 1.35461 20.9409C1.61028 21.4426 2.01793 21.8516 2.51969 22.1073Z" fill="#534AFF"/>
<path d="M25.0403 19.7009C25.0093 20.2394 24.938 20.6182 24.7736 20.9409C24.5179 21.4426 24.1096 21.8516 23.6078 22.1073C23.0379 22.3977 22.2926 22.3977 20.8021 22.3977H5.32651C3.83596 22.3977 3.08957 22.3977 2.51969 22.1073C2.01793 21.8516 1.61028 21.4426 1.35461 20.9409C1.08179 20.4054 1.06506 19.7156 1.06403 18.3978L7.42127 10.981L7.42315 10.9789C7.98699 10.3211 8.26938 9.99168 8.60433 9.87293C8.89855 9.76862 9.21979 9.77105 9.51253 9.87944C9.84615 10.003 10.124 10.3362 10.6799 11.0031L14.2414 15.277C14.7559 15.8944 15.0146 16.2049 15.3288 16.3295C15.6059 16.4394 15.9115 16.4518 16.1974 16.3674C16.5229 16.2714 16.8094 15.9849 17.3823 15.412L18.0451 14.7492C18.6284 14.1659 18.9201 13.8745 19.2502 13.7792C19.5402 13.6955 19.8501 13.7135 20.1291 13.8287C20.4467 13.9598 20.7042 14.2808 21.2196 14.925L25.0403 19.7009ZM25.0403 19.7009L25.0639 19.7305" stroke="#534AFF" stroke-width="2.128" stroke-linecap="round" stroke-linejoin="round"/>
</svg>
