<svg width="16" height="16" viewBox="0 0 16 16" fill="none" xmlns="http://www.w3.org/2000/svg">
<path d="M4 4.80021V11.1237C4 12.031 4 12.4846 4.13608 12.7623C4.3883 13.2768 4.94105 13.5726 5.50911 13.497C5.8156 13.4562 6.19309 13.2046 6.94807 12.7013L6.94988 12.7C7.24912 12.5005 7.39877 12.4008 7.5553 12.3455C7.84281 12.2438 8.15651 12.2438 8.44401 12.3455C8.60086 12.4009 8.75109 12.501 9.05155 12.7014C9.80652 13.2047 10.1844 13.4561 10.4909 13.4969C11.059 13.5725 11.6117 13.2768 11.8639 12.7623C12 12.4847 12 12.0309 12 11.1237V4.79802C12 4.05274 12 3.67955 11.8548 3.39461C11.727 3.14373 11.5225 2.9399 11.2716 2.81207C10.9864 2.66675 10.6135 2.66675 9.8668 2.66675H6.13346C5.38673 2.66675 5.01308 2.66675 4.72786 2.81207C4.47698 2.9399 4.27316 3.14373 4.14532 3.39461C4 3.67983 4 4.05348 4 4.80021Z" fill="#FFC11F" fill-opacity="0.2" stroke="#FFC11F" stroke-width="1.1" stroke-linecap="round" stroke-linejoin="round"/>
</svg>
