<svg width="24" height="24" viewBox="0 0 24 24" fill="none" xmlns="http://www.w3.org/2000/svg">
<rect width="24" height="24" rx="4" fill="#FF4A4A"/>
<path d="M5 14.6V9H7.096C7.54933 9 7.92533 9.07733 8.224 9.232C8.52267 9.38667 8.744 9.59467 8.888 9.856C9.032 10.1173 9.104 10.416 9.104 10.752C9.104 11.0613 9.03467 11.3467 8.896 11.608C8.75733 11.8693 8.53867 12.0827 8.24 12.248C7.94133 12.408 7.56 12.488 7.096 12.488H6.08V14.6H5ZM6.08 11.616H7.032C7.37867 11.616 7.62667 11.5387 7.776 11.384C7.93067 11.224 8.008 11.0133 8.008 10.752C8.008 10.4747 7.93067 10.2613 7.776 10.112C7.62667 9.95733 7.37867 9.88 7.032 9.88H6.08V11.616Z" fill="white"/>
<path d="M9.91406 14.6V9H11.7861C12.4367 9 12.9727 9.11733 13.3941 9.352C13.8207 9.58133 14.1354 9.90667 14.3381 10.328C14.5461 10.744 14.6501 11.2347 14.6501 11.8C14.6501 12.3653 14.5461 12.8587 14.3381 13.28C14.1354 13.696 13.8234 14.0213 13.4021 14.256C12.9807 14.4853 12.4421 14.6 11.7861 14.6H9.91406ZM10.9941 13.672H11.7301C12.1887 13.672 12.5487 13.5973 12.8101 13.448C13.0767 13.2987 13.2661 13.0853 13.3781 12.808C13.4901 12.5253 13.5461 12.1893 13.5461 11.8C13.5461 11.4053 13.4901 11.0693 13.3781 10.792C13.2661 10.5093 13.0767 10.2933 12.8101 10.144C12.5487 9.99467 12.1887 9.92 11.7301 9.92H10.9941V13.672Z" fill="white"/>
<path d="M15.5703 14.6V9H19.2183V9.872H16.6503V11.368H18.7063V12.216H16.6503V14.6H15.5703Z" fill="white"/>
</svg>
