<svg width="20" height="20" viewBox="0 0 20 20" fill="none" xmlns="http://www.w3.org/2000/svg">
<path d="M2.50004 14.1669C2.5 14.1131 2.5 14.0576 2.5 14.0003V6.00033C2.5 5.0669 2.5 4.59985 2.68166 4.24333C2.84144 3.92972 3.09623 3.67494 3.40983 3.51515C3.76635 3.3335 4.23341 3.3335 5.16683 3.3335H14.8335C15.7669 3.3335 16.2334 3.3335 16.5899 3.51515C16.9035 3.67494 17.1587 3.92972 17.3185 4.24333C17.5 4.5995 17.5 5.06599 17.5 5.99759V14.0027C17.5 14.4069 17.5 14.7234 17.4852 14.9813M2.50004 14.1669C2.50068 14.9905 2.51114 15.4217 2.68166 15.7563C2.84144 16.0699 3.09623 16.3256 3.40983 16.4854C3.766 16.6668 4.23249 16.6668 5.16409 16.6668H14.8363C15.7679 16.6668 16.2337 16.6668 16.5899 16.4854C16.9035 16.3256 17.1587 16.0699 17.3185 15.7563C17.4213 15.5547 17.4658 15.3179 17.4852 14.9813M2.50004 14.1669L6.47331 9.53141L6.47449 9.53013C6.82689 9.11899 7.00338 8.91308 7.21273 8.83887C7.39662 8.77367 7.59739 8.77519 7.78035 8.84294C7.98886 8.92013 8.16255 9.12839 8.50993 9.54525L10.7359 12.2164C11.0575 12.6023 11.2192 12.7963 11.4155 12.8742C11.5887 12.9429 11.7797 12.9507 11.9584 12.8979C12.1618 12.8379 12.3409 12.6589 12.699 12.3008L13.1132 11.8866C13.4778 11.522 13.6601 11.3398 13.8664 11.2803C14.0476 11.228 14.2414 11.2392 14.4157 11.3112C14.6142 11.3932 14.7752 11.5938 15.0972 11.9964L17.4852 14.9813M17.4852 14.9813L17.5 14.9998M12.5 8.3335C12.0398 8.3335 11.6667 7.9604 11.6667 7.50016C11.6667 7.03993 12.0398 6.66683 12.5 6.66683C12.9602 6.66683 13.3333 7.03993 13.3333 7.50016C13.3333 7.9604 12.9602 8.3335 12.5 8.3335Z" stroke="black" stroke-width="1.33" stroke-linecap="round" stroke-linejoin="round"/>
</svg>
