<svg width="20" height="20" viewBox="0 0 20 20" fill="none" xmlns="http://www.w3.org/2000/svg">
<path d="M10 8.16659V16.6666M10 8.16659C10 6.76645 10 6.06668 10.2725 5.5319C10.5122 5.0615 10.8943 4.67892 11.3647 4.43923C11.8995 4.16675 12.5997 4.16675 13.9998 4.16675H16.1665C16.6332 4.16675 16.8667 4.16675 17.045 4.25758C17.2018 4.33747 17.329 4.46486 17.4089 4.62166C17.4997 4.79992 17.5 5.03345 17.5 5.50016V12.8335C17.5 13.3002 17.4997 13.5332 17.4089 13.7115C17.329 13.8683 17.2021 13.9961 17.0453 14.076C16.8672 14.1667 16.6342 14.1667 16.1684 14.1667H13.8078C13.0251 14.1667 12.6331 14.1667 12.2778 14.2746C11.9634 14.3701 11.6714 14.5265 11.4175 14.7352C11.1307 14.9709 10.9134 15.2965 10.4792 15.9478L10 16.6666M10 8.16659C10 6.76645 9.99986 6.06668 9.72738 5.5319C9.48769 5.0615 9.10522 4.67892 8.63481 4.43923C8.10003 4.16675 7.39981 4.16675 5.99967 4.16675H3.83301C3.3663 4.16675 3.13318 4.16675 2.95492 4.25758C2.79811 4.33747 2.67072 4.46486 2.59083 4.62166C2.5 4.79992 2.5 5.03345 2.5 5.50016V12.8335C2.5 13.3002 2.5 13.5332 2.59083 13.7115C2.67072 13.8683 2.79811 13.9961 2.95492 14.076C3.133 14.1667 3.36584 14.1667 3.83164 14.1667H6.19227C6.97495 14.1667 7.36618 14.1667 7.7214 14.2746C8.03588 14.3701 8.32927 14.5265 8.58317 14.7352C8.86881 14.97 9.08477 15.2939 9.5154 15.9399L10 16.6666" stroke="currentColor" stroke-width="1.33" stroke-linecap="round" stroke-linejoin="round"/>
</svg>
