<svg width="16" height="16" viewBox="0 0 16 16" fill="none" xmlns="http://www.w3.org/2000/svg">
<path d="M6.66602 10.6667H3.33268V14M9.33268 5.33333H12.666V2M3.05469 6.00227C3.42848 5.07711 4.05431 4.27536 4.86105 3.68815C5.66779 3.10094 6.62392 2.75168 7.61918 2.68034C8.61445 2.609 9.60917 2.81827 10.4914 3.28441C11.3737 3.75055 12.1068 4.45503 12.6088 5.31742M12.9444 9.99805C12.5706 10.9232 11.9448 11.725 11.138 12.3122C10.3313 12.8994 9.37613 13.2482 8.38086 13.3195C7.38559 13.3909 6.39006 13.1816 5.50781 12.7155C4.62557 12.2494 3.8919 11.545 3.38997 10.6826" stroke="currentColor" stroke-width="1.1" stroke-linecap="round" stroke-linejoin="round"/>
</svg>
