<svg width="16" height="16" viewBox="0 0 16 16" fill="none" xmlns="http://www.w3.org/2000/svg">
<path d="M6.87152 9.12815L10.1023 5.89738M13.4072 3.9257L10.6801 12.7888C10.4357 13.583 10.3134 13.9804 10.1026 14.1121C9.9198 14.2263 9.69343 14.2454 9.4943 14.1628C9.26469 14.0675 9.07833 13.6955 8.70657 12.9519L6.97926 9.49732C6.92027 9.37933 6.89074 9.32058 6.85133 9.26945C6.81636 9.22409 6.77601 9.18321 6.73064 9.14824C6.68068 9.10973 6.62292 9.08085 6.51019 9.0245L3.04762 7.29321C2.30409 6.92145 1.93228 6.73539 1.83701 6.50578C1.75439 6.30665 1.77323 6.08007 1.88747 5.89723C2.01919 5.68641 2.4165 5.56394 3.21104 5.31946L12.0741 2.59237C12.6987 2.40017 13.0112 2.30415 13.2222 2.38161C13.4059 2.44907 13.5508 2.59381 13.6183 2.77759C13.6957 2.98847 13.5996 3.30076 13.4076 3.92478L13.4072 3.9257Z" stroke="white" stroke-width="1.1" stroke-linecap="round" stroke-linejoin="round"/>
</svg>
