<svg width="58" height="63" viewBox="0 0 58 63" fill="none" xmlns="http://www.w3.org/2000/svg">
<path d="M9.79492 57.2637L7.58301 58.6104C7.51476 58.6524 7.42944 58.6534 7.36035 58.6143C7.28188 58.5687 7.24174 58.4786 7.25781 58.3906H7.25879L7.7373 55.8721L9.79492 57.2637ZM46.9375 6.97266C46.2756 6.97266 45.6233 7.12916 45.0361 7.42871C44.4489 7.72829 43.9443 8.16283 43.5645 8.69434L43.5537 8.68652C43.9613 9.45753 43.9338 10.4216 43.3975 11.1904L40.6279 15.1602L40.5977 15.1396L25.5967 36.6396L25.6045 36.6445L12.3027 55.7061L12.3125 55.7129C12.2952 55.7367 12.2722 55.7579 12.2461 55.7734H12.2471L10.1963 57.0205L7.82422 55.416L8.26562 53.0811C8.27071 53.0528 8.28099 53.0258 8.29688 53.002L8.28516 52.9941L21.5947 33.918L36.5967 12.418L36.5938 12.416L39.3623 8.44727C39.9039 7.67112 40.8193 7.30291 41.7021 7.41406L41.3789 7.19238C42.0048 6.31665 42.8372 5.602 43.8047 5.1084C44.7722 4.61479 45.8468 4.35742 46.9375 4.35742V6.97266ZM15.9609 39.3213H10.8301L10.5547 39.3311C9.91625 39.3731 9.29586 39.5591 8.74121 39.875C8.68801 39.9053 8.63481 39.9362 8.58301 39.9688C8.28432 40.1567 8.01226 40.3803 7.77344 40.6338C7.63294 40.7829 7.50506 40.9421 7.38965 41.1084C7.30572 41.2294 7.22874 41.3555 7.1582 41.4854C7.12813 41.5407 7.09872 41.5967 7.07129 41.6533C6.96454 41.8737 6.87813 42.1022 6.81348 42.3359C6.76535 42.51 6.73042 42.688 6.70605 42.8682C6.6703 43.1327 6.66096 43.4007 6.67871 43.6689C6.68331 43.7384 6.68906 43.8079 6.69727 43.877C6.72575 44.1166 6.7743 44.3527 6.84473 44.582C6.90465 44.7771 6.97981 44.9681 7.06934 45.1533C7.17672 45.3755 7.30659 45.5871 7.4541 45.7881C7.63137 46.0296 7.83267 46.2521 8.05762 46.4492C8.60804 46.9315 8.93843 47.7013 8.64355 48.3711C8.35428 49.0274 7.58182 49.3398 6.98535 48.9414C6.37351 48.5327 5.83381 48.0276 5.38574 47.4473L5.38477 47.4492C5.30134 47.3412 5.22182 47.2305 5.14551 47.1182C5.13407 47.1013 5.12262 47.0843 5.11133 47.0674C5.05384 46.9811 4.99857 46.8933 4.94531 46.8047C4.93826 46.793 4.93081 46.7813 4.92383 46.7695C4.91419 46.7532 4.90501 46.7361 4.89551 46.7197C4.86153 46.6612 4.82803 46.6024 4.7959 46.543C4.79169 46.5352 4.78738 46.5273 4.7832 46.5195C4.75282 46.4628 4.724 46.4052 4.69531 46.3477C4.68038 46.3177 4.66485 46.2879 4.65039 46.2578C4.50581 45.9566 4.38451 45.6451 4.28711 45.3262C4.27831 45.2974 4.27012 45.2682 4.26172 45.2393C4.25136 45.2036 4.2412 45.1677 4.23145 45.1318C4.21759 45.0809 4.20403 45.0297 4.19141 44.9785C4.18205 44.9406 4.17274 44.9024 4.16406 44.8643C4.15615 44.8295 4.14797 44.7946 4.14062 44.7598C4.09004 44.5196 4.0528 44.2759 4.0293 44.0303C4.00344 43.7598 3.9953 43.4885 4.00293 43.2188C4.00354 43.197 4.00405 43.175 4.00488 43.1533C4.00744 43.0866 4.01104 43.0197 4.01562 42.9531C4.01682 42.9357 4.01721 42.9179 4.01855 42.9004C4.03786 42.6497 4.07133 42.4 4.11914 42.1533C4.12877 42.1037 4.14062 42.0542 4.15137 42.0049C4.15815 41.9737 4.16463 41.9422 4.17188 41.9111C4.1784 41.8832 4.1855 41.855 4.19238 41.8271C4.2072 41.7672 4.22274 41.707 4.23926 41.6475C4.24628 41.6221 4.25342 41.5965 4.26074 41.5713C4.27503 41.5221 4.29022 41.4728 4.30566 41.4238C4.31539 41.393 4.32478 41.3617 4.33496 41.3311C4.35623 41.267 4.37909 41.2031 4.40234 41.1396C4.40881 41.122 4.41427 41.1036 4.4209 41.0859C4.43588 41.0461 4.45201 41.0064 4.46777 40.9668C4.48729 40.9178 4.50764 40.8688 4.52832 40.8203C4.58533 40.6866 4.64688 40.5541 4.71289 40.4238C4.71738 40.415 4.72204 40.4053 4.72656 40.3965C4.7374 40.3753 4.7487 40.354 4.75977 40.333C4.78924 40.277 4.81957 40.2211 4.85059 40.166C4.86527 40.1399 4.88047 40.1138 4.89551 40.0879C4.92076 40.0444 4.94645 40.0009 4.97266 39.958C4.98739 39.9339 5.00253 39.9097 5.01758 39.8857C5.05399 39.8279 5.09174 39.7705 5.12988 39.7139C5.14001 39.6988 5.15089 39.6839 5.16113 39.6689C5.35517 39.3858 5.57063 39.1175 5.80566 38.8672C5.81083 38.8617 5.8161 38.8551 5.82129 38.8496C5.83387 38.8363 5.84768 38.8237 5.86035 38.8105C5.92771 38.7405 5.996 38.6707 6.06641 38.6035C6.0763 38.5941 6.08574 38.5836 6.0957 38.5742C6.1729 38.5014 6.2533 38.4315 6.33398 38.3623C6.36371 38.3368 6.39368 38.3111 6.42383 38.2861C6.49931 38.2236 6.57599 38.1619 6.6543 38.1025C6.66869 38.0916 6.68377 38.0811 6.69824 38.0703C6.77837 38.0106 6.86043 37.9528 6.94336 37.8965C6.96127 37.8843 6.97904 37.8714 6.99707 37.8594C7.07387 37.8083 7.15238 37.759 7.23145 37.7109C7.24369 37.7035 7.25627 37.6958 7.26855 37.6885C7.28949 37.6759 7.31097 37.6637 7.33203 37.6514C7.5261 37.5379 7.72523 37.4335 7.92871 37.3398C7.95296 37.3287 7.97756 37.3175 8.00195 37.3066C8.09798 37.2638 8.19517 37.223 8.29297 37.1846C8.30075 37.1815 8.30861 37.1778 8.31641 37.1748C8.32204 37.1726 8.32836 37.171 8.33398 37.1689C9.11949 36.8664 9.95865 36.7078 10.8096 36.7051H17.7861L15.9609 39.3213ZM46.6865 25.9219C47.5763 25.9246 48.4581 26.0978 49.2803 26.4316C50.109 26.7682 50.8627 27.2619 51.4971 27.8838C52.1314 28.5058 52.6351 29.2449 52.9785 30.0576C53.3219 30.8704 53.498 31.7423 53.498 32.6221C53.498 33.5017 53.3218 34.3729 52.9785 35.1855C52.6351 35.9984 52.1315 36.7372 51.4971 37.3594C50.8626 37.9814 50.1092 38.4748 49.2803 38.8115C48.4579 39.1455 47.5765 39.3176 46.6865 39.3203V39.3213H25.5742L27.4004 36.7051H46.665C47.2117 36.7051 47.7537 36.5996 48.2588 36.3945C48.764 36.1893 49.2237 35.8879 49.6104 35.5088C49.9969 35.1297 50.3035 34.6798 50.5127 34.1846C50.7219 33.6893 50.83 33.1582 50.8301 32.6221C50.83 32.0859 50.7219 31.5539 50.5127 31.0586C50.3034 30.5636 49.9968 30.1133 49.6104 29.7344C49.2237 29.3554 48.7639 29.0538 48.2588 28.8486C47.7604 28.6463 47.2258 28.5408 46.6865 28.5381V28.5391H33.0869L34.9131 25.9219H46.6865ZM31.0078 17.7568H10.8096V17.7559C10.2708 17.7588 9.7372 17.8642 9.23926 18.0664C8.7341 18.2716 8.27434 18.573 7.8877 18.9521C7.50122 19.3312 7.19458 19.7812 6.98535 20.2764C6.77615 20.7716 6.66805 21.3028 6.66797 21.8389C6.66797 22.375 6.77617 22.907 6.98535 23.4023C7.19455 23.8974 7.50133 24.3476 7.8877 24.7266C8.27429 25.1056 8.73418 25.4071 9.23926 25.6123C9.73703 25.8144 10.271 25.9189 10.8096 25.9219H25.3105L23.4844 28.5391H10.8096V28.5381C9.92042 28.535 9.03938 28.363 8.21777 28.0293C7.38905 27.6926 6.6353 27.1991 6.00098 26.5771C5.36667 25.9551 4.86284 25.216 4.51953 24.4033C4.17626 23.5906 4 22.7186 4 21.8389C4.00009 20.9593 4.17629 20.088 4.51953 19.2754C4.86289 18.4626 5.36656 17.7237 6.00098 17.1016C6.63537 16.4795 7.38892 15.9861 8.21777 15.6494C9.03954 15.3157 9.92025 15.1426 10.8096 15.1396H32.834L31.0078 17.7568ZM46.9385 4.35742C47.8656 4.35742 48.784 4.53059 49.6406 4.86719C50.4973 5.20385 51.276 5.69729 51.9316 6.31934C52.5873 6.94147 53.108 7.68031 53.4629 8.49316C53.8176 9.30587 54 10.177 54 11.0566C54 11.9365 53.8178 12.8082 53.4629 13.6211C53.108 14.4339 52.5873 15.1719 51.9316 15.7939C51.2759 16.4161 50.4973 16.9104 49.6406 17.2471C48.7909 17.5809 47.8805 17.7531 46.9609 17.7559V17.7568H40.6104L42.4365 15.1396H46.9609C47.5186 15.1369 48.0706 15.0316 48.5859 14.8291C49.108 14.6239 49.5828 14.3235 49.9824 13.9443C50.382 13.5652 50.6988 13.1145 50.915 12.6191C51.1312 12.1238 51.2432 11.5928 51.2432 11.0566C51.2431 10.5205 51.1313 9.98951 50.915 9.49414C50.6988 8.99872 50.3821 8.54812 49.9824 8.16895C49.5828 7.7898 49.1081 7.48938 48.5859 7.28418C48.0638 7.07896 47.5037 6.97363 46.9385 6.97363V4.35742Z" fill="#003262"/>
</svg>
