<svg width="16" height="16" viewBox="0 0 16 16" fill="none" xmlns="http://www.w3.org/2000/svg">
<path d="M6.00033 4L8.00033 2M8.00033 2L10.0003 4M8.00033 2V8.66667M4.66715 6.66667C4.04589 6.66667 3.73526 6.66667 3.49023 6.76816C3.16353 6.90349 2.90381 7.1632 2.76849 7.48991C2.66699 7.73494 2.66699 8.04541 2.66699 8.66667V11.8667C2.66699 12.6134 2.66699 12.9865 2.81232 13.2717C2.94015 13.5226 3.14397 13.727 3.39486 13.8548C3.67979 14 4.05299 14 4.79827 14H11.2027C11.948 14 12.3206 14 12.6056 13.8548C12.8565 13.727 13.0606 13.5226 13.1885 13.2717C13.3337 12.9868 13.3337 12.614 13.3337 11.8687V8.66667C13.3337 8.04541 13.3336 7.73494 13.2321 7.48991C13.0968 7.1632 12.8373 6.90349 12.5106 6.76816C12.2655 6.66667 11.9549 6.66667 11.3337 6.66667" stroke="currentColor" stroke-width="1.1" stroke-linecap="round" stroke-linejoin="round"/>
</svg>
