<svg width="20" height="20" viewBox="0 0 20 20" fill="none" xmlns="http://www.w3.org/2000/svg">
<path d="M2.5 10.8333H17.5M2.5 10.8333C2.5 14.9754 5.85786 18.3333 10 18.3333M2.5 10.8333C2.5 6.69112 5.85786 3.33325 10 3.33325M17.5 10.8333C17.5 14.9754 14.1421 18.3333 10 18.3333M17.5 10.8333C17.5 6.69112 14.1421 3.33325 10 3.33325M10 3.33325C11.876 5.38702 12.9421 8.05228 13 10.8333C12.9421 13.6142 11.876 16.2795 10 18.3333M10 3.33325C8.12404 5.38702 7.05794 8.05228 7 10.8333C7.05794 13.6142 8.12404 16.2795 10 18.3333" stroke="currentColor" stroke-width="1.33" stroke-linecap="round" stroke-linejoin="round"/>
</svg>
