<svg width="16" height="16" viewBox="0 0 16 16" fill="none" xmlns="http://www.w3.org/2000/svg">
<path d="M2.66699 13.3333H13.3337M2.66699 13.3333V10.6667L8.00033 5.33333M2.66699 13.3333L5.33366 13.3333L10.667 7.99999M8.00033 5.33333L9.91274 3.42089L9.91389 3.41976C10.1772 3.1565 10.309 3.02464 10.461 2.97526C10.5949 2.93175 10.7392 2.93175 10.873 2.97526C11.0249 3.02461 11.1567 3.15632 11.4195 3.4192L12.5794 4.57907C12.8434 4.84308 12.9755 4.97514 13.0249 5.12736C13.0684 5.26126 13.0684 5.40549 13.0249 5.53938C12.9755 5.69149 12.8436 5.82336 12.58 6.08699L12.5794 6.08756L10.667 7.99999M8.00033 5.33333L10.667 7.99999" stroke="currentColor" stroke-width="1.1" stroke-linecap="round" stroke-linejoin="round"/>
</svg>

