<svg width="16" height="16" viewBox="0 0 16 16" fill="none" xmlns="http://www.w3.org/2000/svg">
<path d="M14 5.99992H11.3333L10.5 9.34379C10.5523 9.28443 10.608 9.22851 10.6667 9.17603C10.9006 8.96684 11.1821 8.81385 11.4897 8.73267C11.9509 8.61097 12.4407 8.65829 12.8702 8.86573C13.2997 9.07317 13.6406 9.42749 13.8319 9.86437C14.0233 10.3012 14.0525 10.7919 13.9138 11.2482C13.7751 11.7046 13.4776 12.0964 13.0755 12.3529C12.6734 12.6094 12.193 12.7135 11.7207 12.6469C11.2484 12.5802 10.8155 12.3472 10.5 11.9895M2 3.33325V7.99992M2 7.99992V12.6666M2 7.99992H7.33333M7.33333 3.33325V7.99992M7.33333 7.99992V12.6666" stroke="#4D4D4D" stroke-width="1.33333" stroke-linecap="round" stroke-linejoin="round"/>
</svg>
