<svg width="16" height="16" viewBox="0 0 16 16" fill="none" xmlns="http://www.w3.org/2000/svg">
<g clip-path="url(#clip0_733_3043)">
<path d="M10.6665 7.33333L1.33313 7.33333M6.66647 2.66667L5.33313 1.33333M9.33313 14.6667L1.33313 14.6667M14.6665 10.6667C14.6665 11.403 14.0695 12 13.3331 12C12.5968 12 11.9998 11.403 11.9998 10.6667C11.9998 9.93029 13.3331 8.66666 13.3331 8.66666C13.3331 8.66666 14.6665 9.93029 14.6665 10.6667ZM5.9998 2L10.5789 6.57909C10.8429 6.8431 10.9749 6.9751 11.0244 7.12732C11.0679 7.26122 11.0679 7.40545 11.0244 7.53934C10.9749 7.69156 10.8429 7.82357 10.5789 8.08758L7.50829 11.1582C6.98027 11.6862 6.71626 11.9502 6.41182 12.0491C6.14403 12.1361 5.85557 12.1361 5.58778 12.0491C5.28334 11.9502 5.01933 11.6862 4.4913 11.1582L2.17496 8.84182C1.64694 8.3138 1.38293 8.04979 1.28401 7.74535C1.197 7.47756 1.197 7.1891 1.28401 6.92131C1.38293 6.61687 1.64694 6.35286 2.17496 5.82484L5.9998 2Z" stroke="black" stroke-opacity="0.5" stroke-width="1.33" stroke-linecap="round" stroke-linejoin="round"/>
</g>
<defs>
<clipPath id="clip0_733_3043">
<rect width="16" height="16" fill="white"/>
</clipPath>
</defs>
</svg>
