<svg width="16" height="16" viewBox="0 0 16 16" fill="none" xmlns="http://www.w3.org/2000/svg">
<path d="M11.8089 8C11.8089 8.42079 12.15 8.7619 12.5708 8.7619C12.9916 8.7619 13.3327 8.42079 13.3327 8C13.3327 7.57921 12.9916 7.23809 12.5708 7.23809C12.15 7.23809 11.8089 7.57921 11.8089 8Z" stroke="#4D4D4D" stroke-width="1.52381" stroke-linecap="round" stroke-linejoin="round"/>
<path d="M7.23744 8C7.23744 8.42079 7.57856 8.7619 7.99935 8.7619C8.42014 8.7619 8.76125 8.42079 8.76125 8C8.76125 7.57921 8.42014 7.23809 7.99935 7.23809C7.57856 7.23809 7.23744 7.57921 7.23744 8Z" stroke="#4D4D4D" stroke-width="1.52381" stroke-linecap="round" stroke-linejoin="round"/>
<path d="M2.66602 8C2.66602 8.42079 3.00713 8.7619 3.42792 8.7619C3.84871 8.7619 4.18983 8.42079 4.18983 8C4.18983 7.57921 3.84871 7.23809 3.42792 7.23809C3.00713 7.23809 2.66602 7.57921 2.66602 8Z" stroke="#4D4D4D" stroke-width="1.52381" stroke-linecap="round" stroke-linejoin="round"/>
</svg>
