<svg width="16" height="16" viewBox="0 0 16 16" fill="none" xmlns="http://www.w3.org/2000/svg">
<path d="M7.99967 8.00005C8.59664 8.00005 9.18265 8.1283 9.69648 8.37141C9.9286 8.48123 10.1424 8.61279 10.3333 8.76249C10.565 8.94416 10.7632 9.15266 10.9208 9.38211C11.2084 9.80061 11.3502 10.2731 11.3315 10.7504C11.3127 11.2278 11.134 11.6923 10.8141 12.0955C10.4943 12.4988 10.0449 12.8257 9.51302 13.0425C8.98112 13.2593 8.38615 13.3582 7.79036 13.3282C7.19458 13.2982 6.62004 13.1406 6.1263 12.8721C5.63257 12.6037 5.2379 12.2343 4.98372 11.8021M7.99967 8.00005H2.66602M7.99967 8.00005H13.3327M11.0155 4.19812C10.7614 3.766 10.3668 3.39642 9.87305 3.12798C9.37931 2.85955 8.80444 2.70191 8.20866 2.67193C7.61287 2.64194 7.0179 2.74061 6.486 2.95742C5.9541 3.17423 5.50476 3.50137 5.1849 3.90459C4.86503 4.30782 4.68639 4.77257 4.66764 5.2499C4.66215 5.38975 4.67047 5.52897 4.69217 5.66676" stroke="#4D4D4D" stroke-width="1.33333" stroke-linecap="round" stroke-linejoin="round"/>
</svg>
